<svg
              width="24"
              height="24"
              viewBox="0 0 24 24"
              fill="none"
              xmlns="http://www.w3.org/2000/svg"
              className="yxBNXG_spectrum-Icon yxBNXG_spectrum-Icon--sizeM"
              focusable="false"
              aria-hidden="true"
              role="img"
            >
              <path
                d="M17.9993 16.7491C17.8393 16.7491 17.6893 16.6991 17.5493 16.5991C17.2193 16.3491 17.1493 15.8791 17.3993 15.5491C18.9692 13.4592 18.9692 10.5394 17.3993 8.44948C17.1493 8.1195 17.2193 7.64952 17.5493 7.39953C17.8793 7.14955 18.3492 7.21954 18.5992 7.54953C20.5591 10.1694 20.5591 13.8292 18.5992 16.4491C18.4492 16.6491 18.2292 16.7491 17.9993 16.7491Z"
                fill="currentColor"
              />
              <path
                d="M19.8293 19.2491C19.6693 19.2491 19.5194 19.1991 19.3794 19.0991C19.0494 18.8491 18.9794 18.3791 19.2294 18.0491C21.8992 14.4893 21.8992 9.50955 19.2294 5.94973C18.9794 5.61974 19.0494 5.14977 19.3794 4.89978C19.7093 4.64979 20.1793 4.71979 20.4293 5.04977C23.4992 9.13957 23.4992 14.8593 20.4293 18.9491C20.2893 19.1491 20.0593 19.2491 19.8293 19.2491Z"
                fill="currentColor"
              />
              <path
                d="M14.0194 3.77995C12.8994 3.15998 11.4695 3.31997 10.0096 4.22993L7.08972 6.05984C6.88972 6.17983 6.65974 6.24983 6.42975 6.24983H5.49979H4.99982C2.57993 6.24983 1.25 7.57976 1.25 9.99965V13.9995C1.25 16.4193 2.57993 17.7493 4.99982 17.7493H5.49979H6.42975C6.65974 17.7493 6.88972 17.8193 7.08972 17.9393L10.0096 19.7692C10.8895 20.3191 11.7495 20.5891 12.5494 20.5891C13.0694 20.5891 13.5694 20.4691 14.0194 20.2191C15.1293 19.5992 15.7493 18.3092 15.7493 16.5893V7.40977C15.7493 5.68986 15.1293 4.39992 14.0194 3.77995Z"
                fill="currentColor"
              />
            </svg>