<svg
              viewBox="0 0 30 30"
              fill="none"
              xmlns="http://www.w3.org/2000/svg"
              focusable="false"
              aria-hidden="true"
              role="img"
            >
              <path
                d="M26.7891 20.6706L23.1067 12.0588C22.4361 10.4824 21.4361 9.58826 20.295 9.52944C19.1656 9.47061 18.0714 10.2588 17.2361 11.7647L15.0008 15.7765C14.5303 16.6236 13.8597 17.1294 13.1303 17.1883C12.3891 17.2588 11.6479 16.8706 11.0479 16.1059L10.7891 15.7765C9.95379 14.7294 8.9185 14.2236 7.85967 14.3294C6.80085 14.4353 5.89497 15.1647 5.29497 16.353L3.25967 20.4118C2.53026 21.8824 2.60085 23.5883 3.45967 24.9765C4.3185 26.3647 5.81262 27.2 7.44791 27.2H22.4597C24.0361 27.2 25.5067 26.4118 26.3773 25.0941C27.2714 23.7765 27.4126 22.1177 26.7891 20.6706Z"
                fill="currentColor"
              />
              <path
                d="M9.08292 10.741C11.2791 10.741 13.0594 8.9607 13.0594 6.76456C13.0594 4.56841 11.2791 2.78809 9.08292 2.78809C6.88677 2.78809 5.10645 4.56841 5.10645 6.76456C5.10645 8.9607 6.88677 10.741 9.08292 10.741Z"
                fill="currentColor"
              />
            </svg>