<svg
                  xmlns="http://www.w3.org/2000/svg"
                  width="20"
                  height="20"
                  fill="none"
                >
                  <path
                    className="dark:text-white text-black group-hover:text-[#00BCD1]"
                    fill="currentColor"
                    d="M14.394 4.6c-1.368 0-3 .52-3 3v4.8c0 2.48 1.632 3 3 3s3-.52 3-3V7.6c0-2.48-1.632-3-3-3ZM6.106 4.6c-1.368 0-3 .52-3 3v4.8c0 2.48 1.632 3 3 3s3-.52 3-3V7.6c0-2.48-1.632-3-3-3ZM11.394 9.4H9.106v1.2h2.288V9.4ZM18.65 12.6a.604.604 0 0 1-.6-.6V8c0-.328.272-.6.6-.6.328 0 .6.272.6.6v4c0 .328-.272.6-.6.6ZM1.85 12.6a.604.604 0 0 1-.6-.6V8c0-.328.272-.6.6-.6.328 0 .6.272.6.6v4c0 .328-.272.6-.6.6Z"
                  ></path>
                </svg>