<svg
                xmlns="http://www.w3.org/2000/svg"
                fill="none"
                viewBox="0 0 20 20"
              >
                <path
                  fill="currentColor"
                  d="M15.51 3.56H6.76c-2.62 0-4.37 1.31-4.37 4.38v6.12c0 3.06 1.75 4.38 4.37 4.38h8.75c2.63 0 4.38-1.32 4.38-4.38V7.94c0-3.07-1.75-4.38-4.38-4.38Zm.41 5.33-2.73 2.19c-.58.46-1.32.69-2.05.69-.74 0-1.48-.23-2.05-.7L6.35 8.9a.67.67 0 0 1-.1-.93.65.65 0 0 1 .92-.1l2.73 2.19c.67.53 1.8.53 2.46 0l2.74-2.2a.66.66 0 0 1 .82 1.03Z"
                />
              </svg>