<svg
              width="20"
              height="20"
              viewBox="0 0 20 20"
              fill="none"
              xmlns="http://www.w3.org/2000/svg"
            >
              <path
                d="M9.99984 1.66602C5.39984 1.66602 1.6665 5.39935 1.6665 9.99935C1.6665 14.5993 5.39984 18.3327 9.99984 18.3327C14.5998 18.3327 18.3332 14.5993 18.3332 9.99935C18.3332 5.39935 14.5998 1.66602 9.99984 1.66602ZM10.2748 14.166C10.1248 14.216 9.8665 14.216 9.7165 14.166C8.4165 13.7243 5.49984 11.866 5.49984 8.71602C5.49984 7.32435 6.6165 6.19935 7.99984 6.19935C8.8165 6.19935 9.5415 6.59102 9.99984 7.20768C10.4498 6.59935 11.1832 6.19935 11.9998 6.19935C13.3832 6.19935 14.4998 7.32435 14.4998 8.71602C14.4998 11.866 11.5832 13.7243 10.2748 14.166Z"
                fill="#005CF0"
              />
            </svg>