<svg
                className="w-7 h-7"
                viewBox="0 0 34 34"
                fill="none"
                xmlns="http://www.w3.org/2000/svg"
              >
                <path
                  d="M22.7493 4.44434L10.2077 8.61101C1.77713 11.4305 1.77713 16.0277 10.2077 18.8332L13.9299 20.0693L15.166 23.7916C17.9716 32.2221 22.5827 32.2221 25.3882 23.7916L29.5688 11.2638C31.4299 5.63879 28.3743 2.56934 22.7493 4.44434ZM23.1938 11.9166L17.916 17.2221C17.7077 17.4305 17.4438 17.5277 17.1799 17.5277C16.916 17.5277 16.6521 17.4305 16.4438 17.2221C16.041 16.8193 16.041 16.1527 16.4438 15.7499L21.7216 10.4443C22.1243 10.0416 22.791 10.0416 23.1938 10.4443C23.5966 10.8471 23.5966 11.5138 23.1938 11.9166Z"
                  fill="white"
                />
              </svg>